<svg xmlns="http://www.w3.org/2000/svg" viewBox="0 0 24 24" id="steemit">
  <path d="m7.586 17.006.001.003.003.007z"></path>
  <path fill="#38E7B2" d="m3.445 16.719.013.011c.598.512 1.934 1.308 1.958 1.349-.876 2.226-3.678 2.835-3.678 2.835 2.499 1.463 5.431 2.493 8.558 2.904l.118.013c.691.093 1.491.146 2.302.146.639 0 1.269-.036 1.891-.1a10.597 10.597 0 0 0 6.314-3.114l.002-.002a9.499 9.499 0 0 0 2.853-6.798 9.493 9.493 0 0 0-2.795-6.74h-.001a9.663 9.663 0 0 0-3.334-2.179l-.066-.023c.721-2.12 3.277-2.892 3.277-2.892C18.133.8 14.931.023 11.547.023c-1.106 0-2.192.087-3.253.247a10.167 10.167 0 0 0-5.815 3.459l-.013.016A9.109 9.109 0 0 0 .224 9.748a9.133 9.133 0 0 0 3.221 6.971zm2.92 3.773a6.295 6.295 0 0 0 1.484-2.104l.016-.041a1.65 1.65 0 0 0-.054-1.315 6.89 6.89 0 0 1-.699-3.046c0-1.97.815-3.751 2.126-5.022l.002-.002a7.235 7.235 0 0 1 5.05-2.045 7.24 7.24 0 0 1 5.109 2.102 7.293 7.293 0 0 1 2.036 5.067 7.3 7.3 0 0 1-2.16 5.193l.002.002a8.845 8.845 0 0 1-5.096 2.377l-.041.004a16.419 16.419 0 0 1-3.557-.016 16.866 16.866 0 0 1-4.328-1.196l.11.042z"></path>
</svg>
